<?xml version="1.0" standalone="no"?>
<!DOCTYPE svg PUBLIC "-//W3C//DTD SVG 20010904//EN"
 "http://www.w3.org/TR/2001/REC-SVG-20010904/DTD/svg10.dtd">
<svg version="1.0" xmlns="http://www.w3.org/2000/svg"
 width="512.000000pt" height="512.000000pt" viewBox="0 0 512.000000 512.000000"
 preserveAspectRatio="xMidYMid meet">
<metadata>
Created by potrace 1.11, written by Peter Selinger 2001-2013
</metadata>
<g transform="translate(0.000000,512.000000) scale(0.100000,-0.100000)"
fill="#000000" stroke="none">
<path d="M415 2570 c0 -934 2 -1061 15 -1064 8 -3 105 -4 216 -4 l200 0 1 42
1 41 -169 -1 -169 0 0 983 0 983 168 2 167 3 3 38 3 37 -218 0 -218 0 0 -1060z"/>
<path d="M1038 3623 c-2 -5 -4 -399 -3 -878 l1 -870 47 -3 47 -3 2 779 3 779
124 -286 c69 -157 137 -313 152 -346 27 -61 124 -284 206 -475 25 -58 57 -132
72 -165 16 -33 49 -110 76 -172 l47 -112 47 2 46 2 62 140 c93 210 99 223 136
310 19 44 45 105 59 135 13 30 114 261 224 514 l199 459 3 -782 2 -781 45 0
45 0 0 38 c1 52 1 1694 1 1710 -1 9 -16 12 -56 10 l-56 -3 -135 -310 c-74
-170 -138 -319 -144 -330 -5 -11 -83 -191 -173 -400 -90 -209 -173 -400 -184
-425 -11 -25 -31 -71 -44 -102 -13 -32 -27 -58 -30 -58 -3 0 -23 39 -43 88
-21 48 -82 188 -136 312 -54 124 -182 419 -285 655 -102 237 -197 453 -209
480 -13 28 -26 60 -30 73 -6 19 -14 22 -61 22 -30 0 -55 -3 -57 -7z"/>
<path d="M2998 3623 c-2 -5 -4 -399 -3 -878 l1 -870 48 0 49 0 1 321 1 321
108 115 c59 64 115 124 125 135 16 19 25 9 280 -301 144 -177 272 -333 285
-347 12 -15 63 -77 112 -138 l90 -111 63 0 62 0 -92 113 c-51 61 -151 184
-223 272 -72 88 -211 258 -308 377 -127 155 -176 222 -170 232 4 8 64 74 133
148 204 217 254 272 265 283 45 51 256 273 278 293 15 14 27 29 27 34 0 4 -26
8 -58 8 l-59 0 -58 -62 c-32 -35 -83 -90 -114 -123 -31 -33 -110 -119 -177
-190 -67 -72 -133 -143 -148 -160 -15 -16 -74 -79 -131 -140 -56 -60 -117
-126 -135 -145 -80 -88 -138 -148 -147 -153 -7 -4 -10 164 -11 471 0 262 -1
483 -1 490 -1 13 -87 18 -93 5z"/>
<path d="M4272 3590 l-1 -40 170 0 169 0 0 -984 0 -983 -167 1 -168 1 -3 -41
-3 -40 210 -2 c144 0 213 3 217 10 4 6 7 484 7 1062 l0 1051 -215 3 -216 2 0
-40z"/>
</g>
</svg>
